<?xml version="1.0" standalone="yes"?>
<svg width="400" height="400">
<path style="fill:#000000; stroke:none;" d="M0 0L0 400L400 400L400 0L0 0z"/>
<path style="fill:#1a7194; stroke:none;" d="M106 43L122 50L121 51L116 50L132 59C131.6 67.5892 141.301 71.9539 149 74L149 75L146 75L146 76L170 86L170 73L179 70L179 69C174.277 69.321 169.998 69.8716 170 64L165 63L165 62C167.047 61.2126 167.047 60.7873 165 60L165 59L168 58C161.01 51.9759 154.491 48.0325 145 48L145 42C161.472 41.9873 179.412 30.6669 195 25.4089C209.244 20.6042 225.286 22.3022 240 22L240 21L220 16L220 13C213.338 11.8536 205.586 6.30881 199.039 6.55402C192.637 6.79382 183.312 12.686 177 14.8303C161.544 20.0808 146.443 26.3029 131 31.5509C123.129 34.2256 111.699 36.765 106 43z"/>
<path style="fill:#316c84; stroke:none;" d="M201 6L201 7L220 13L220 16L250 24L250 23L201 6z"/>
<path style="fill:#7694a5; stroke:none;" d="M169 16L169 17L195 9C188.289 6.67191 175.47 13.4391 169 16z"/>
<path style="fill:#6c95a4; stroke:none;" d="M150 23L150 24L169 18L150 23z"/>
<path style="fill:#1187b8; stroke:none;" d="M183 29L183 30L197.83 28.6644L214.039 32.3712L250 34C254.139 29.8262 258.157 31.8742 260 37L267 36L255 48L202 59C203.986 65.0432 220.894 71.4378 227 70.4421C241.807 68.0276 256.637 59.7766 271 55.3657C285.321 50.9677 299.409 49.7088 314 47L264 30.4776L238 22.1034L198 24.4421L183 29z"/>
<path style="fill:#668d9d; stroke:none;" d="M136 28L136 29L150 25L136 28z"/>
<path style="fill:#2d718c; stroke:none;" d="M250 24L250 25L288.83 39.3657L310 46L286 36.3079L250 24z"/>
<path style="fill:#238aaa; stroke:none;" d="M145 42L145 48C154.676 48.1079 160.206 53.3976 168 58L165 59L165 60L165 62L165 63L170 64C168.585 71.9461 179.147 69.6615 184 68.0455C197.219 63.6443 200.889 63.3076 214 68.8464C217.214 70.204 222.004 71.1938 223.972 74.3434C226.154 77.8351 225 84.0365 225 88L226 88L226 71L195 60L195 57L158 48L159 43C166.376 41.2138 173.49 37.0961 181 36.1844C185.327 35.6591 190.935 37.2726 192 32L200 28L163.09 36.2477L145 42z"/>
<path style="fill:#55808a; stroke:none;" d="M110 38L110 39L136 30C128.899 28.0249 116.551 35.0822 110 38z"/>
<path style="fill:#20a1cc; stroke:none;" d="M192 32C190.385 37.2274 184.434 35.6461 180 36.1844C172.904 37.0458 165.809 40.9065 159 43L158 48L195 57L195 60L255 48L267 36L260 37C258.889 31.7935 253.398 28.7632 250 34L215.015 32.0455L192 32z"/>
<path style="fill:#1a5277; stroke:none;" d="M103 41C109.581 55.7654 132.593 73.5585 149 75L149 74C141.787 71.1362 131.907 67.5218 132 59L116 50L121 51L122 50C119.896 44.7648 111.114 44.4795 106 43L111 39L103 41z"/>
<path style="fill:#95a4aa; stroke:none;" d="M101.667 41.3333L102.333 41.6667L101.667 41.3333z"/>
<path style="fill:#f5f6fa; stroke:none;" d="M41 65C42.2226 68.6867 44.3084 68.8796 48 69L48 73C62.3674 73.1284 75.6146 79.2092 89.0147 83.4267C96.9047 85.91 105.239 86.5733 113 88.99C121.208 91.546 129.291 95.8134 138 96C138.522 99.9432 143.613 100.289 147.134 99.6019C155.821 97.9076 163.313 91.6444 172 90C169.05 81.3625 146.882 76.1317 139 71.7161C130.396 66.8963 122.249 61.6623 115 54.9105C111.346 51.5074 107.039 44.0724 102.075 42.7361C97.8707 41.6045 90.0417 47.1391 86 48.5602C71.1066 53.7967 56.0228 60.161 41 65z"/>
<path style="fill:#dbdfe2; stroke:none;" d="M81 49L81 50L99 44L81 49z"/>
<path style="fill:#666666; stroke:none;" d="M87 46L88 47L87 46z"/>
<path style="fill:#458ca1; stroke:none;" d="M311 47L311 48L342 58C334.487 52.3788 320.336 47.7687 311 47z"/>
<path style="fill:#666666; stroke:none;" d="M82 48L83 49L82 48z"/>
<path style="fill:#22bde1; stroke:none;" d="M225 89C243.483 96.5808 270.752 114.757 291 111L299 100C316.274 99.5957 328.31 80.837 346 78.7145C351.214 78.0889 357.579 76.6506 362 80L385 75C375.077 68.4513 358.47 65.3483 347 61.5092C335.448 57.6429 324.191 50.4019 312 48.4398C294.418 45.6102 274.23 53.9991 258 59.7608C250.373 62.4682 231.85 64.643 227.028 71.51C224.175 75.5729 226.168 84.0937 225 89z"/>
<path style="fill:#ced0d1; stroke:none;" d="M73 52L73 53L77 52L73 52z"/>
<path style="fill:#696969; stroke:none;" d="M72 52L73 53L72 52z"/>
<path style="fill:#c5caca; stroke:none;" d="M67 54L67 55L72 54L67 54z"/>
<path style="fill:#8a8a95; stroke:none;" d="M61.6667 56.3333L62.3333 56.6667L61.6667 56.3333z"/>
<path style="fill:#6d6d6d; stroke:none;" d="M59 57L60 58L59 57z"/>
<path style="fill:#41a8b3; stroke:none;" d="M342 58C344.402 61.807 347.745 61.9525 352 62L342 58z"/>
<path style="fill:#5a5a5a; stroke:none;" d="M54 59L55 60L54 59z"/>
<path style="fill:#5d5d5d; stroke:none;" d="M49 61L50 62L49 61z"/>
<path style="fill:#dbecec; stroke:none;" d="M172 74C178.184 75.4312 192.321 78.8961 195.972 84.4182C198.069 87.5894 197 93.3611 197 97L199 97C199 80.4005 209.523 79.3786 223 73L223 72L204 65L204 66L213 70L213 71L202 71L202 72L206 73L199 78L193 76L193 77L196 78L196 79L184 75L184 74L188 75L190 71L191 71L195 74L204 68C199.847 58.1273 176.701 67.1099 172 74z"/>
<path style="fill:#55a8b6; stroke:none;" d="M352 62C356.35 67.7459 370.963 71.4206 378 72L352 62z"/>
<path style="fill:#c4c4c6; stroke:none;" d="M41 64L41 65L46 64L41 64z"/>
<path style="fill:#8cb5bf; stroke:none;" d="M203 64L203 67L204 67L205 64L203 64z"/>
<path style="fill:#d9dce1; stroke:none;" d="M13 76C29.8679 87.1987 54.0427 93.2161 73 100.373C84.3353 104.652 95.7726 109.32 106.83 114.285C114.059 117.532 122.043 122.793 130 123.811C136.401 124.63 142.643 121.506 149 121L149 116L177.83 113.741L195 109L196 104L192 103L192 102L198 102L196 99L203 97C192.754 98.8105 180.917 91.6721 172 87C171.357 90.8582 151.699 99.2168 147 100C143.567 100.572 137.291 98.8358 138 96C128.913 95.5785 120.63 90.7477 112 88.2716C92.4293 82.6566 68.6676 73.0593 48 73L48 69L41 65L13 76z"/>
<path style="fill:#686868; stroke:none;" d="M36 66L37 67L36 66z"/>
<path style="fill:#7496ac; stroke:none;" d="M204 66L198 70L200 72L198 74L197 74L194 74L191 71L190 71L188 75L184 74L184 75L196 79L196 78L193 77L193 76L199 78L201 73L203 76L204 76L206 73L202 72L202 71L213 71L204 66z"/>
<path style="fill:#0000ff; stroke:none;" d="M370 68L371 69L370 68z"/>
<path style="fill:#616161; stroke:none;" d="M28 69L29 70L28 69z"/>
<path style="fill:#b2d7e6; stroke:none;" d="M207 69L210 71L207 69z"/>
<path style="fill:#4b5a5a; stroke:none;" d="M23 71L24 72L23 71z"/>
<path style="fill:#a0bbc8; stroke:none;" d="M195 71L195 72L197 74L198 74L200 72L195 71z"/>
<path style="fill:#173648; stroke:none;" d="M170 73L170 86L172 86L170 73z"/>
<path style="fill:#b4d8eb; stroke:none;" d="M201.667 73.3333L202.333 73.6667L201.667 73.3333z"/>
<path style="fill:#5b6366; stroke:none;" d="M208 83L219 86C208.617 96.4857 197.236 95.567 185 90.8109C181.427 89.4222 176.084 88.4089 174.042 84.7863C172.349 81.7812 173.859 77.2758 174 74L172 74L170 86L170 87L199 97.7438L225 88L224 73C218.285 74.3574 209.119 76.4963 208 83z"/>
<path style="fill:#104964; stroke:none;" d="M224 73L224 87L225 87L224 73z"/>
<path style="fill:#606060; stroke:none;" d="M15 74L16 75L15 74z"/>
<path style="fill:#7ea7ba; stroke:none;" d="M143.667 74.3333L144.333 74.6667L143.667 74.3333z"/>
<path style="fill:#768599; stroke:none;" d="M174 74C173.433 81.1889 171.693 86.5031 180 89L178 75L174 74z"/>
<path style="fill:#506b83; stroke:none;" d="M202 74L200 75L200 76L202 74z"/>
<path style="fill:#395555; stroke:none;" d="M385.667 75.3333L386.333 75.6667L385.667 75.3333z"/>
<path style="fill:#8ab4c5; stroke:none;" d="M178 76C178.094 87.3542 182.251 91.0601 193 94C189.633 84.0802 189.896 78.114 178 76z"/>
<path style="fill:#8ae3f3; stroke:none;" d="M288 118C320.326 109.159 355.156 92.2154 385 77C378.421 75.1947 366.99 82.7974 361 85.6381C344.1 93.6526 326.273 100.333 309 107.576C302.647 110.24 292.036 112.222 288 118z"/>
<path style="fill:#3da1aa; stroke:none;" d="M385 76L384 135L385 135L387 76L385 76z"/>
<path style="fill:#f3f1f2; stroke:none;" d="M13 77L13.054 108L15 213C22.8757 211.313 29.732 207.656 38 207.09C55.9639 205.859 75.3293 212.88 92 218.756C104.24 223.071 116.837 232.692 130 233L130 232C120.967 229.749 120.786 222.496 115.196 216.764C111.766 213.247 107.387 212.659 105 208C100.611 206.684 99.6793 203.227 96.4823 200.289C86.671 191.273 63.8611 163.468 50 183L46 182L44 186L43 186C43.1397 179.441 45.283 173.372 49.1049 168C72.0655 135.726 114.805 158.202 137 180L138 180L129.029 160L108 117C120.17 123.376 135.114 130.749 149 131.737C154.425 132.123 160.273 129.898 166 130L166 129L164 129L164 128L223.004 121.188L241 120L241 119L237 119L235 117L235 116L242 118C248.637 113.917 253.732 115.975 261 116L261 115L254 115L254 114L270 113L271 113L278 111L278 110C260.529 104.728 241.959 90.6143 224 88.4954C218.428 87.8379 204.852 93.6729 203 99L196 99L198 102L192 102L192 103L196 104L195 109L176.91 113.741L149 116L149 121L130 123.656L105.91 113.523L43 88.3881L13 77z"/>
<path style="fill:#40d4e2; stroke:none;" d="M299 100L291 111L283 112L283 113C292.41 116.523 300.27 111.581 309 107.989C320.064 103.437 330.85 97.7531 342 93.5332C352.03 89.737 364.377 86.4585 373 80L362 80C358.54 76.0407 349.748 78.1448 345 78.7145C334.186 80.012 324.489 86.3815 315.325 91.8488C309.298 95.4447 306.644 99.6077 299 100z"/>
<path style="fill:#2ab1c2; stroke:none;" d="M372 92L367 92L367 93L369 93L369 94L354 104L356 109L356 110L352 110L352 114C346.089 114.447 344.186 117.262 344 123L341 120L336 127C332.002 127.582 330.116 129.099 329 133C325.361 133.603 320.596 137.597 322.252 141.949C323.422 145.028 327.189 146.862 329.482 149.015C334.477 153.703 336.797 162.828 344 164L344 160L347 163L348 163L359 145L362 146L369 136L382 135L382 140L383 140C387.529 120.978 385 97.5629 385 78C377.175 78.9839 371.154 83.8301 372 92z"/>
<path style="fill:#d1d1d1; stroke:none;" d="M13 79L13 96L14 96L13 79z"/>
<path style="fill:#6d9daf; stroke:none;" d="M154.667 79.3333L155.333 79.6667L154.667 79.3333z"/>
<path style="fill:#777e86; stroke:none;" d="M199 86C204.296 86.0006 215.89 90.2454 219 86L208 83C206.801 77.5193 200.244 82.8267 199 86z"/>
<path style="fill:#a5c7dc; stroke:none;" d="M190 81C190.527 87.0652 190.52 93.5304 197 96C197 88.6805 198.298 83.0187 190 81z"/>
<path style="fill:#159abb; stroke:none;" d="M292 116L292 117C303.591 120.083 311.488 134.25 321 141L329 133L336 127L341 120L344 123C344.401 117.683 346.649 114.829 352 114L352 110L356 110L356 109L354 104L369 94L369 93L367 93L367 92L372 92C371.76 86.9668 372.798 84.8693 377 82L353 90.7161L292 116z"/>
<path style="fill:#97c6cb; stroke:none;" d="M160.667 82.3333L161.333 82.6667L160.667 82.3333z"/>
<path style="fill:#8c9498; stroke:none;" d="M199 86L212 91L213 91L215 90L215 88L199 86z"/>
<path style="fill:#a7aeb7; stroke:none;" d="M199 88L199 96L212 89L199 88z"/>
<path style="fill:#004040; stroke:none;" d="M386 94L386 100L387 100L386 94z"/>
<path style="fill:#fbfffe; stroke:none;" d="M254 114L254 115L261 115L261 116C253.981 115.922 248.004 112.755 242 118L235 116L235 117L237 119L241 119L241 120L222.015 121.188L164 128L164 129L166 129L166 130L149 131.495L136 128C141.245 135.154 156.858 138.324 165 141.424C175.617 145.467 189.545 155.341 201 155.566C206.902 155.682 213.748 151.063 219 148.73C231.837 143.028 244.768 137.713 257 130.968C265.932 126.043 283.923 124.463 289 115C283.315 112.58 276.625 108.738 271 113L254 114z"/>
<path style="fill:#d9d9d9; stroke:none;" d="M13 112L14 131L15 131L13 112z"/>
<path style="fill:#a2a2a2; stroke:none;" d="M13 117L13 124L14 124L13 117z"/>
<path style="fill:#babfc4; stroke:none;" d="M108 117L138 180L137 180L133 177C145.827 195.209 162.16 209.87 172.745 230C175.295 234.851 179.978 245.728 187 242L194 253L201 254C201 242.254 203.192 227.5 187 227L183 218C169.217 215.828 161.491 194.572 154.853 185.054C150.035 178.146 143.351 174.718 141 166C134.111 161.919 135.787 151.398 127 150L126 131L127 126L108 117z"/>
<path style="fill:#1773a6; stroke:none;" d="M230 148L226 148L226 150L230 150L223 171C219.597 171.729 220.013 173.806 220 177L210 183L210 187L209 187L209 181L208 181L207 203L205 203L205 183L204 183L204 261C204 268.876 200.932 284.94 205.028 291.776C207.642 296.14 218.241 300.33 223 302C201.793 268.758 223.124 220.199 242.887 191C248.757 182.326 256.785 174.961 262.156 166C269.084 154.442 276.659 143.2 283.924 131.83C287.237 126.647 289.255 120.917 295 118C289.79 115.971 283.737 119.496 279 121.706C267.4 127.119 255.815 132.742 244 137.691C238.281 140.087 231.132 141.004 230 148z"/>
<path style="fill:#0f5f92; stroke:none;" d="M263 165C283.012 151.069 296.701 141.003 322 143L298 118C285.283 118.416 277.177 142.609 270.575 152C267.64 156.174 264.295 160.009 263 165z"/>
<path style="fill:#366d75; stroke:none;" d="M385 120L385 130L386 130L385 120z"/>
<path style="fill:#555555; stroke:none;" d="M13 124L13 129L14 129L13 124z"/>
<path style="fill:#81bfd4; stroke:none;" d="M272.667 124.333L273.333 124.667L272.667 124.333z"/>
<path style="fill:#98d4e9; stroke:none;" d="M267 126L267 127L272 126L267 126z"/>
<path style="fill:#cfd3d5; stroke:none;" d="M126 131C121.569 135.028 127.129 144.754 127 150L141 166C142.363 174.813 149.145 178.541 154.141 185.054C161.27 194.348 168.606 216.892 183 218L187 227C191.322 227.412 198.669 230.816 200.397 235.094C202.297 239.801 201 246.99 201 252C201 263.384 202 274.657 202 286L203 286L201 209L195 210L180 186C165.628 180.846 167.596 156.802 154 153C152.911 144.127 149.28 135.06 141.014 131.27C136.838 129.355 126.377 122.893 126 131z"/>
<path style="fill:#91cee5; stroke:none;" d="M265.667 127.333L266.333 127.667L265.667 127.333z"/>
<path style="fill:#bbe7f4; stroke:none;" d="M254 132L254 133L262 130L254 132z"/>
<path style="fill:#144747; stroke:none;" d="M385 130L385 145L386 145L385 130z"/>
<path style="fill:#dadee1; stroke:none;" d="M148 135L154 153C167.032 158.938 164.761 182.752 180 186C180.141 197.87 192.523 200.5 195 210L201 209L201 231L202 231C202 207.507 197.561 178.845 203 156L148 135z"/>
<path style="fill:#51acbe; stroke:none;" d="M369 136L362 146L359 145L348 163L347 163L344 160L344 164L340 164C343.119 172.492 350.191 188.383 343 196C341.918 201.754 333.439 210.11 328 212C326.83 219.443 319.162 224.422 314.846 230.128C311.529 234.513 309.644 239.457 304.95 242.742C300.784 245.657 295.339 247.127 291.723 250.883C287.009 255.78 283.758 263.778 279.447 269.36C269.683 282 257.168 296.93 244 306L244 308L254 309C254.322 295.676 272.401 280.837 281.792 272.407C289.101 265.845 294.729 257.346 301.329 250.171C316.829 233.318 333.627 217.508 350.546 202.476C354.276 199.162 354 193.583 358 191C359.847 175.565 375.112 169.745 382.825 158.455C386.635 152.877 385 141.452 385 135L384 135L383 140L382 140L382 135L369 136z"/>
<path style="fill:#73b8d0; stroke:none;" d="M241.667 138.333L242.333 138.667L241.667 138.333z"/>
<path style="fill:#92cde9; stroke:none;" d="M236.667 140.333L237.333 140.667L236.667 140.333z"/>
<path style="fill:#043462; stroke:none;" d="M231 213L241.868 199.312L272 175L272 171L275 171C279.705 155.662 310.238 153.784 323 156.9C327.916 158.1 332.054 161.047 337 162C335.437 140.471 309.282 139.962 294 145.039C271.258 152.595 254.207 172.404 241.59 192C237.548 198.278 231.984 205.486 231 213z"/>
<path style="fill:#63adc9; stroke:none;" d="M228 145L231 143L228 145z"/>
<path style="fill:#1e86bd; stroke:none;" d="M204 157L205 203L207 203L208 181L209 181L209 187L210 187L210 183L220 177L223 171L230 150L226 150L226 148L230 148L230 145L204 157z"/>
<path style="fill:#bfbfbf; stroke:none;" d="M14 146L14 153L15 153L14 146z"/>
<path style="fill:#73bab2; stroke:none;" d="M384 150C383.851 166.461 358.728 172.775 358 191L350.611 201.889L343 208L346 207L341 240C355.736 228.081 365.878 207.342 385 201L384.039 170L384 150z"/>
<path style="fill:#8f949e; stroke:none;" d="M69 153L69 154C75.353 154.005 83.8837 155.006 86 162C95.9811 167.364 103.509 178.853 110.633 187.275C113.3 190.428 117.421 191.889 120.319 194.823C128.819 203.425 138.307 215.701 144.954 225.831C149.186 232.28 159.338 241.182 158 249L171 255C170.458 244.574 158.481 235.265 152.559 226.996C145.963 217.787 138.218 208.548 132.394 198.957C121.96 181.777 115.779 167.518 97 157L99 156C90.0443 150.364 78.8171 150.403 69 153z"/>
<path style="fill:#a8abb1; stroke:none;" d="M63 156C72.6326 157.416 81.4757 161.848 88.4815 168.729C92.8653 173.035 94.8059 180.078 101 182C101.73 188.476 111.182 196.574 116.08 201.039C125.079 209.241 134.219 218.204 142.312 227.336C147.793 233.519 151.372 240.745 159 245C156.932 239.858 152.479 237.043 149.411 232.576C140.688 219.872 131.632 206.126 121.072 194.823C118.004 191.539 113.441 190.084 110.633 186.555C104.462 178.796 95.8991 165.272 86 162C84.7301 154.379 75.2818 154.001 69 154L69 153L72 153C68.4243 151.732 65.1242 152.899 63 156z"/>
<path style="fill:#78b3d4; stroke:none;" d="M210.667 152.333L211.333 152.667L210.667 152.333z"/>
<path style="fill:#939393; stroke:none;" d="M14 153L14 157L15 157L14 153z"/>
<path style="fill:#3180a5; stroke:none;" d="M203 291L204 291L204 157L210 153C198.537 157.255 203 176.751 203 187L203 291z"/>
<path style="fill:#98c8da; stroke:none;" d="M205.667 154.333L206.333 154.667L205.667 154.333z"/>
<path style="fill:#c2c4c5; stroke:none;" d="M57 160C73.1115 159.089 75.8724 173.976 88 178L87 181L90 185L93 185L100 197C106.899 199.68 108.952 205.458 113.883 210.291C121.55 217.804 129.684 222.913 134 234L138 233L138 238C140.95 238 151.182 239.682 148 244L159 248C157.171 241.562 150.942 238.603 146.898 233.715C137.623 222.501 128.152 211.95 117.664 201.756C112.546 196.782 102.404 188.879 101 182C89.2938 176.058 85.6385 161.155 70.9853 157.504C65.3885 156.109 60.328 154.017 57 160z"/>
<path style="fill:#7fc0d2; stroke:none;" d="M203.667 155.333L204.333 155.667L203.667 155.333z"/>
<path style="fill:#6c7383; stroke:none;" d="M97 156L97 157C108.941 166.899 127.728 177.963 130 195C143.396 199.014 147.197 223.903 161 225L165 240L175 250L174 253L177 253C178.082 258.75 179.428 263.335 185 266C182.649 256.815 175.896 249.873 171.842 241.711C164.871 227.678 157.813 210.797 147.125 198.862C144.929 196.41 141.593 195.889 139.228 193.687C132.757 187.661 130.774 179.194 122 175L122 168C114.626 162.719 106.354 156.485 97 156z"/>
<path style="fill:#074473; stroke:none;" d="M275 171L272 171L272 175C261.899 178.213 247.802 191.761 241.254 199.508C237.61 203.82 236.433 210.72 230 212C222.678 226.312 215.961 243.87 218 260L219 260L227 238L230 239L240 211L249.194 198.722L283.407 175.06L297 166L325.981 165.768L343 176L338 159L337 159L337 162C321.548 157.119 306.373 153.11 290 158.63C284.096 160.62 276.125 164.342 275 171z"/>
<path style="fill:#5e5e5e; stroke:none;" d="M14 157L14 165L15 165L14 157z"/>
<path style="fill:#6faac6; stroke:none;" d="M202 157L202 193L203 193C203 182.613 206.011 166.56 202 157z"/>
<path style="fill:#d4d5d7; stroke:none;" d="M43 186L44 186L46 182L50 183C67.3191 166.383 83.6855 189.78 95.7099 200.289C99.2026 203.342 100.095 207.19 105 208C106.586 213.142 110.889 213.42 114.505 216.764C120.522 222.328 120.254 230.615 130 232L130 233L126 233L126 234L150 243L150 242L138 238L138 233L134 234C130.874 222.115 121.124 217.484 113.883 209.61C109.257 204.579 107.256 198.73 100 197L93 185L90 185L87 181L88 178C81.1012 174.274 77.5669 165.793 70 162C53.5352 153.747 43.1241 171.202 43 186z"/>
<path style="fill:#0e5c8e; stroke:none;" d="M297 166L282.667 175L269 180.333L259.833 189.833L248.167 198.667L240 211L230 239L227 238L219 260L218 260L217 252L216 252C212.356 271.626 211.349 305.838 238 307L238 306C223.609 302.58 214.869 289.446 221.559 275.144C223.2 271.637 227.381 269.599 229.44 266.115C235.101 256.539 238.49 246.376 243.735 237.039C248.421 228.698 256.137 220.036 259 211C263.052 210.776 265.265 210.235 266 206L271 206L271 200L276 200L278 197C278.079 192.788 280.158 191.31 284 190C283.3 177.818 295.619 180.972 304 180L304 177C309.291 176.773 314.912 177.945 319.961 177.531C328.48 176.831 334.282 171.452 342 179C343.287 174.094 336.683 171.839 333.259 169.794C320.587 162.226 310.812 165.848 297 166z"/>
<path style="fill:#2e2e2e; stroke:none;" d="M14 165L14 170L15 170L14 165z"/>
<path style="fill:#5e8d86; stroke:none;" d="M384 165L384 179L385 179L384 165z"/>
<path style="fill:#565d6f; stroke:none;" d="M121 169L122 175L138.429 193.687L146.432 198.862L164.518 226.3L178.325 251.3L188 269C185.539 240.775 163.771 211.917 146.246 191C139.843 183.357 130.93 171.76 121 169z"/>
<path style="fill:#13719c; stroke:none;" d="M304 177L304 180C295.45 180.428 282.715 177.496 284 190C279.714 190.887 277.833 192.518 278 197L276 200L271 200L271 206L266 206C264.81 209.771 262.828 210.569 259 211C254.467 219.947 247.978 228.118 243.194 237.039C241.155 240.84 241.848 245.32 239.598 248.866C235.765 254.906 232.1 261.925 227.9 267.646C225.933 270.326 222.404 272.017 221.224 275.144C215.414 290.531 222.973 304.951 240 305L240 304L238 302L246 293L245 287C249.248 284.26 252.109 280.125 252 275L255 271L251 271L250 280L248 280L249 271L253 270C253.313 262.622 258.347 259.242 263 254L261 249L273 235L276 236L275 232L286 226L284 224L285 219L301 210C301.911 204.221 306.355 200.856 312 200L312 197L344 190L344 174L343 174L343 179C334.628 171.429 329.067 176.31 319.961 177.184C314.863 177.673 309.338 176.579 304 177z"/>
<path style="fill:#a4a4a4; stroke:none;" d="M15 182L15 200L16 200L15 182z"/>
<path style="fill:#1485a7; stroke:none;" d="M345 182L344 190L328.985 194.316L312 197L312 200C305.852 200.459 301.487 203.671 301 210L285 219L284 224L286 225L286 226L275 232L276 236L273 235L261 249L263 254C257.649 258.042 252.503 262.958 253 270L249 271L248 280L250 280L251 271L255 271L252 275L245 287L246 293L238 302L240 304L240 305L235 305L235 306L241 307L245 298L250 298C253.424 285.114 263.625 270.494 273.039 261.09C278.731 255.404 288.567 248.887 291 241L296 241L294 237L315 225L315 221C322.142 220.47 327.279 213.62 329 207L346 193L345 182z"/>
<path style="fill:#a5c9e7; stroke:none;" d="M202 193L202 272L203 272L203 218L202 193z"/>
<path style="fill:#2998b3; stroke:none;" d="M343 193C339.76 198.59 335.478 205.171 329 207C326.436 213.066 321.883 219.973 315 221L315 225L294 237L296 241L291 241C280.553 261.567 254.07 272.886 250 298L245 298L241 308C247.638 306.029 250.464 300.437 255.09 295.9C263.643 287.511 272.007 279.55 279.447 270.091C283.938 264.38 287.107 256.837 291.723 251.542C297.946 244.403 307.222 243.497 312.555 234.829C317.02 227.572 327.318 220.851 328 212C333.932 210.775 342.422 202.033 343 196L346 193L343 193z"/>
<path style="fill:#7f8490; stroke:none;" d="M131 195C131.749 200.117 135.062 202.008 137.556 206.169C144.043 216.993 152.106 227.599 159.745 237.689C164.318 243.729 171.586 247.479 170 256L179 260L177 253L174 253L175 250L165 240L161 225C147.46 222.796 144.247 199.043 131 195z"/>
<path style="fill:#173f58; stroke:none;" d="M321 278L331 266L330 275L331 275L332 271L336 271L336 267C341.233 266.144 343.063 263.159 346 259L346 258L350 244L353 245L356 241L355 238L358 238L357 235C360.464 234.022 361.482 232.526 362 229L372 228L379 229L379 224L380 224L382 229L383 229L385 201C378.396 202.314 373.117 207.457 368 211.611C352.174 224.457 343.594 239.046 333.449 256C329.446 262.69 322.169 270.285 321 278z"/>
<path style="fill:#525d69; stroke:none;" d="M34 207L34 208L44 208L34 207z"/>
<path style="fill:#949eab; stroke:none;" d="M44 207L44 208L48 208L44 207z"/>
<path style="fill:#6cb3c6; stroke:none;" d="M254 309L257 309C259.904 298.53 269.029 293.055 275.296 284.999C289.357 266.924 306.168 250.592 322.255 234.324C330.397 226.091 340.504 217.37 346 207C336.278 209.694 330.395 219.573 323.627 226.549C305.943 244.773 287.161 262.91 270.65 282.17C263.999 289.929 254.096 298.363 254 309z"/>
<path style="fill:#8c9498; stroke:none;" d="M28.6667 208.333L29.3333 208.667L28.6667 208.333z"/>
<path style="fill:#082542; stroke:none;" d="M17 218L18 218C22.1228 210.316 33.2727 209.977 41 209L44 230L45 230L45 227L46 227L54 242L53 245C62.9007 248.3 65.0427 259.298 71 266C74.1673 269.563 78.4612 270.07 82 272C86.7983 274.617 90.4152 282.604 96 284C98.1199 284.53 98.8481 282.641 101 283C105.081 283.68 108.431 288.276 108 290L139 301.541L161 306L183 305C184.057 322.637 160.328 335.311 145 334.985C116.639 334.381 87.8463 310.691 72.0147 289C65.1 279.526 60.1882 263.231 50 257L52 272L48 272L48 273L50 279L58 281L58 274C66.7083 281.956 65.3788 292.341 66 303C75.0816 301.981 80.3627 314.651 85 321L88 320L92 323L90 325L92 331L93 331L94 328L97 334L100 332C102.35 339.916 108.192 344.78 116 347L116 348L70 333L70 334C80.2167 338.835 90.6852 343.195 101 347.825C105.36 349.782 111.094 353.519 116 353.027C133.14 351.31 145.39 335.051 163 335L177 326L177 332C182.03 332.107 195.75 338.535 199.397 335.806C203.117 333.022 202 321.188 202 317C202.001 299.97 205.81 278.796 187 270L186 298L153.094 298.721L145.737 293.728L124 289L124 288L126 287L96.1327 270.634L79 260C78.4461 252.81 68.3869 244.984 63.51 239.625C56.4346 231.85 49.1864 219.656 45 210L54 210C45.5996 205.534 17.9681 205.54 17 218z"/>
<path style="fill:#6a7885; stroke:none;" d="M50 208L50 209L55 209L50 208z"/>
<path style="fill:#949aa5; stroke:none;" d="M24.6667 209.333L25.3333 209.667L24.6667 209.333z"/>
<path style="fill:#1a2f49; stroke:none;" d="M20 281L21 281L21 274L22 274L23 277L28 268L39 270L35 274L50 271L50 257L56 265L57 265L41 209C34.3334 209.526 23.4952 209.817 18.858 215.498C15.4692 219.65 17 228.006 17 233C17 248.77 16.8439 265.627 20 281z"/>
<path style="fill:#073051; stroke:none;" d="M45 210C47.5675 219.422 56.7804 233.404 63.51 240.405C68.2645 245.352 77.9525 253.357 79 260C86.5325 260 89.3577 265.837 93 270C96.2097 273.668 102.856 272.273 107 274C112.052 276.105 114.27 280.09 120 282C123.574 283.191 126.198 287.451 124 288L124 289L144.87 293.728L152.188 298.721L186 298C187.995 289.273 191.697 272.585 184 266C184.978 270.279 187.907 276.974 183.682 280.438C179.963 283.486 170.691 279.953 166.576 278.706C151.569 274.159 137.952 266.536 123 261.764C114.784 259.141 104.33 260.723 99 252C80.3505 249.935 77.7146 222.715 59 221L61 216L58 213L70 213C62.026 207.988 53.7986 209.976 45 210z"/>
<path style="fill:#99bfcf; stroke:none;" d="M344 209C323.179 235.512 296.132 256.27 276.026 283.039C269.716 291.441 258.735 297.777 257 309L265 309L265 308L260 308L277.91 290.701L295.286 268.404L322.83 241.244L337.674 225.475L345 220L346 220L346 209L344 209z"/>
<path style="fill:#5f6772; stroke:none;" d="M22.6667 210.333L23.3333 210.667L22.6667 210.333z"/>
<path style="fill:#a2b2bd; stroke:none;" d="M64 210L64 211L67 211L64 210z"/>
<path style="fill:#757b87; stroke:none;" d="M19.6667 211.333L20.3333 211.667L19.6667 211.333z"/>
<path style="fill:#889aa5; stroke:none;" d="M67.6667 211.333L68.3333 211.667L67.6667 211.333z"/>
<path style="fill:#0b416c; stroke:none;" d="M58 213L61 216L59 221C77.4199 223.946 79.9625 250.96 99 252C101.645 261.043 115.204 259.466 122 261.694C137.208 266.682 151.503 273.813 166.588 279C177.399 282.718 186 284.63 186 271L185 271L185 276L155 271L155 266L128.83 258.21L115.3 254.351L104.331 243.404L84.9645 232.826L68 221L68 220L72 220L72 217L68 217L67 215L67 214L111 228C98.7923 216.154 74.0551 213 58 213z"/>
<path style="fill:#8ba0b1; stroke:none;" d="M71.6667 212.333L72.3333 212.667L71.6667 212.333z"/>
<path style="fill:#3c4753; stroke:none;" d="M15 213L16 236L17 236L17 213L15 213z"/>
<path style="fill:#587688; stroke:none;" d="M73 213L73 214L76 214L73 213z"/>
<path style="fill:#0c4d7c; stroke:none;" d="M67 214L67 215L68 217L72 217L72 220L68 220L68 221L83.0355 232.2L103.535 243.404L114.465 254.351L127.91 258.21L155 266L155 271L185 276C184.959 261.548 171.658 255.276 160 249.258C142.067 240.001 123.582 233.023 105 225.854C93.3227 221.349 79.6083 214.551 67 214z"/>
<path style="fill:#9bb0b3; stroke:none;" d="M78.6667 214.333L79.3333 214.667L78.6667 214.333z"/>
<path style="fill:#95acbc; stroke:none;" d="M81.6667 215.333L82.3333 215.667L81.6667 215.333z"/>
<path style="fill:#93abb6; stroke:none;" d="M84.6667 216.333L85.3333 216.667L84.6667 216.333z"/>
<path style="fill:#a3bacb; stroke:none;" d="M90.6667 218.333L91.3333 218.667L90.6667 218.333z"/>
<path style="fill:#ccdce2; stroke:none;" d="M343 218C325.115 244.109 288.298 262.443 277 293L281 292L289.699 282.518L309.377 263.031L313.147 255.428L344 222L344 227L345 227L345 218L343 218z"/>
<path style="fill:#a3bbc9; stroke:none;" d="M93.6667 219.333L94.3333 219.667L93.6667 219.333z"/>
<path style="fill:#91aaba; stroke:none;" d="M95.6667 220.333L96.3333 220.667L95.6667 220.333z"/>
<path style="fill:#145f79; stroke:none;" d="M383 221L383 229L382 229L380 224L379 224L379 229L372 228L362 229L357 235L358 238L355 238L356 241L353 245L350 244C349.316 248.365 342.32 254.197 346 258L346 259L336 267L336 271L332 271L331 275L330 275L331 266C327.174 268.34 325.74 272.509 322.83 275.83C309.105 291.496 303.785 310.797 293.919 328.576C290.107 335.445 282.533 348.183 284 356L307 346L307 345L291 350L298 344L301 332L313 325C319.338 310.692 328.648 301.933 341 293L340 291L347 282L352 282L357 276L375 269C374.379 263.336 377.261 263.038 382 264L382 296L383 296L384 243L383 221z"/>
<path style="fill:#f3f4f8; stroke:none;" d="M342 222C337.529 236.411 327.212 243.381 317.744 254.17C311.052 261.795 306.077 270.945 299.28 278.52C295.18 283.09 286.339 286.659 285 293L282 296L291 297L291 298L279 303L279 304C312.205 299.023 343.911 254.339 344 222L342 222z"/>
<path style="fill:#8ca5ad; stroke:none;" d="M105.667 224.333L106.333 224.667L105.667 224.333z"/>
<path style="fill:#9bb6c5; stroke:none;" d="M110.667 226.333L111.333 226.667L110.667 226.333z"/>
<path style="fill:#08172c; stroke:none;" d="M45 227C45.0873 237.547 50.0249 247.392 53.9892 257C66.3674 286.999 88.5976 316.738 120.015 328.711C139.371 336.087 159.639 338.868 175.331 322.285C180.153 317.19 184.141 312.308 183 305C176.275 304.711 166.759 301.637 161 306C154.811 299.997 147.62 303.269 140 301.541C128.906 299.026 119.298 292.319 108 290C107.1 282.125 98.0058 284.599 93.1844 280.826C86.2704 275.417 77.5392 271.246 71.6088 264.804C65.4857 258.152 62.2113 248.218 53 245L54 242L45 227z"/>
<path style="fill:#e1e6ec; stroke:none;" d="M281 292L267 306L267 307L280 305L291 298L291 297L282 296L285 293C285 288.144 296.311 282.641 299.667 279.5C301.671 277.624 302.09 273.643 304 271.333C306.214 268.656 309.282 267.574 311.667 265.5C316.195 261.562 319.533 252.142 324.333 247.167C329.076 242.251 337.379 238.86 338 231C324.789 234.935 316.853 252.736 309.246 262.416C304.292 268.72 296.263 271.838 291.656 278.975C288.406 284.011 281.97 285.907 281 292z"/>
<path style="fill:#6b7883; stroke:none;" d="M16 236L16 256L17 256L16 236z"/>
<path style="fill:#a6afb6; stroke:none;" d="M178 240L188.987 270L201 285L202 285L201 254L194 253L187 242L185 244L178 240z"/>
<path style="fill:#9fb2c3; stroke:none;" d="M340.333 240.667L340.667 241.333L340.333 240.667z"/>
<path style="fill:#4a6973; stroke:none;" d="M17 248L17 309L18 309L18 268L17 248z"/>
<path style="fill:#5a6e84; stroke:none;" d="M337.333 248.667L337.667 249.333L337.333 248.667z"/>
<path style="fill:#556c75; stroke:none;" d="M336.333 250.667L336.667 251.333L336.333 250.667z"/>
<path style="fill:#14758e; stroke:none;" d="M375 269L357 276L352 282L347 282L340 291L341 293C328.838 298.983 316.636 311.619 313 325L310 324L301 332L298 344L291 350C314.216 347.156 338.028 331.581 359 321.836C365.115 318.995 378.39 315.734 381.972 309.775C384.666 305.295 382.631 297.843 382.17 293C381.263 283.473 382 273.568 382 264C377.141 262.31 373.559 262.987 375 269z"/>
<path style="fill:#333333; stroke:none;" d="M16 264L16 268L17 268L16 264z"/>
<path style="fill:#104861; stroke:none;" d="M28 268L23 277L22 274L21 274L21 281L20 281L19 276L18 276C18 284.07 14.3713 303.725 19.0278 310.362C22.866 315.832 35.1134 318.162 41 321.001C57.2305 328.827 74.2175 333.456 90.7145 340.085C99.9267 343.787 105.647 348 116 348L116 347C108.511 343.642 103.388 339.714 100 332L97 334L94 328L93 331L92 331L92 323L88 320L85 321C81.6195 314.151 74.7911 301.171 66 303C65.7758 293.15 67.5832 280.214 58 274L58 281L50 279L48 273L48 272L52 272L51 268L50 271L35 274L39 270L28 268z"/>
<path style="fill:#4e7e98; stroke:none;" d="M320 276L295 296.985L277 307L291 303C290.076 311.408 290.963 323.494 282 328L284 330L284 331L271 338L271 342C262.007 342.671 250.975 352.741 242 348L241 352C236.448 352.056 223.76 352.66 223 358L217 357L218 360L208 363L208 356L204 355L204 392L203 392L203 300L202 300L202 394L230.039 380.469L284 357L290.281 337L309.626 296.09L320 276z"/>
<path style="fill:#879ea5; stroke:none;" d="M202 286L202 300L203 300L202 286z"/>
<path style="fill:#a8b1b8; stroke:none;" d="M203 292L203 326L204 326L204 310L205 310L205 316C216.548 311.485 226.73 310.493 239 310L239 309L203 292z"/>
<path style="fill:#1689a6; stroke:none;" d="M377 292L375 299L374 299L374 295L353 303C351.572 307.702 348.539 307.946 344 308C340.786 313.591 328.387 325.408 322 327L318 331L312 339L382 309L380 292L377 292z"/>
<path style="fill:#c8d6d7; stroke:none;" d="M260 308L270 308L270 307L267 307L267 306C271.853 304.217 275.322 297.774 277 293C269.998 293.552 262.891 301.916 260 308z"/>
<path style="fill:#65a1b7; stroke:none;" d="M214 297L217 299L214 297z"/>
<path style="fill:#6c8698; stroke:none;" d="M234 307L234 308C245.745 310.717 256.914 312.244 269 310L269 311L266 312L269 313L269 319C263.238 320.822 255.02 325.028 253 331L233 332L235 337L220 338L221 341C215.17 341.125 208.633 345.084 205 339L204 339C204 344.389 201.823 353.95 208 356L208 363L218 360L217 357L223 358C223 353.374 237.032 352 241 352L242 348C249.956 353.485 262.782 343.239 271 342L271 338C277.006 337.692 280.453 335.813 284 331L284 330L282 328C291.423 325.148 290.461 310.828 291 303L261 308.91L234 307z"/>
<path style="fill:#ffffff; stroke:none;" d="M17 309L18 310L17 309z"/>
<path style="fill:#8595a4; stroke:none;" d="M238 310L240 313L216 324C200.477 320.637 203 334.009 203 345L204 345L204 339L205 339C207.087 346.166 215.749 341.167 221 341L220 338L235 337L233 332L253 331C256.138 325.414 263.238 321.536 269 319L266 312L269 311L238 310z"/>
<path style="fill:#98a5ad; stroke:none;" d="M204 310L204 324L216 324L240 313C232.733 305.368 212.815 311.701 205 316L204 310z"/>
<path style="fill:#0a425f; stroke:none;" d="M163 335L145 339L145 340L159 341L184 346C186.353 352.785 195.052 352 201 352L201 358L202 358L202 327L201 327C200.947 342.144 187.177 332.085 177 332L177 326C172.961 327.417 163.52 330.676 163 335z"/>
<path style="fill:#105b76; stroke:none;" d="M159 341C144.968 337.659 126.853 346.541 115 354L166 377.306L202 393L201 352C194.691 351.999 187.514 352.099 184 346L159 341z"/>
<path style="fill:#6da8bd; stroke:none;" d="M203 345L203 392L204 392C204 378.735 208.11 357.177 203 345z"/>
<path style="fill:#34555c; stroke:none;" d="M237 377L237 378L241 377L237 377z"/>
<path style="fill:#314961; stroke:none;" d="M233 379L233 380L237 379L233 379z"/>
<path style="fill:#486571; stroke:none;" d="M226 383L233 381L226 383z"/>
</svg>
